<svg width="350" height="170" viewBox="0 0 350 170" fill="none" xmlns="http://www.w3.org/2000/svg">
  <rect width="350" height="170" rx="5" fill="#0d1117"/>
  <text x="25" y="35" fill="#58a6ff" font-family="Segoe UI, Ubuntu, sans-serif" font-weight="600" font-size="14">Most Used Languages (across 226 repos)</text>

  <!-- Progress bar background -->
  <rect x="25" y="50" width="300" height="8" rx="4" fill="#161b22"/>
  <!-- C# 70.2% -->
  <rect x="25" y="50" width="210.6" height="8" rx="4" fill="#178600"/>
  <!-- JavaScript 8.5% -->
  <rect x="235.6" y="50" width="25.5" height="8" fill="#f1e05a"/>
  <!-- Python 5.4% -->
  <rect x="261.1" y="50" width="16.2" height="8" fill="#3572A5"/>
  <!-- TypeScript 4.0% -->
  <rect x="277.3" y="50" width="12" height="8" fill="#3178c6"/>
  <!-- Gherkin 3.7% -->
  <rect x="289.3" y="50" width="11.1" height="8" fill="#73AC25"/>
  <!-- TSQL 0.4% -->
  <rect x="300.4" y="50" width="4.5" height="8" fill="#e38c00"/>
  <!-- HCL 0.2% -->
  <rect x="304.9" y="50" width="3.6" height="8" fill="#844FBA"/>
  <!-- PowerShell 0.4% -->
  <rect x="308.5" y="50" width="4.5" height="8" fill="#012456"/>
  <!-- Other -->
  <rect x="313" y="50" width="12" height="8" rx="0" fill="#8b949e"/>
  <rect x="321" y="50" width="4" height="8" rx="4" fill="#8b949e"/>

  <!-- Legend -->
  <circle cx="33" cy="78" r="5" fill="#178600"/>
  <text x="43" y="82" fill="#c9d1d9" font-family="Segoe UI, Ubuntu, sans-serif" font-size="11">C# 70.2%</text>

  <circle cx="130" cy="78" r="5" fill="#f1e05a"/>
  <text x="140" y="82" fill="#c9d1d9" font-family="Segoe UI, Ubuntu, sans-serif" font-size="11">JavaScript 8.5%</text>

  <circle cx="260" cy="78" r="5" fill="#3572A5"/>
  <text x="270" y="82" fill="#c9d1d9" font-family="Segoe UI, Ubuntu, sans-serif" font-size="11">Python 5.4%</text>

  <circle cx="33" cy="100" r="5" fill="#3178c6"/>
  <text x="43" y="104" fill="#c9d1d9" font-family="Segoe UI, Ubuntu, sans-serif" font-size="11">TypeScript 4.0%</text>

  <circle cx="155" cy="100" r="5" fill="#73AC25"/>
  <text x="165" y="104" fill="#c9d1d9" font-family="Segoe UI, Ubuntu, sans-serif" font-size="11">Gherkin 3.7%</text>

  <circle cx="260" cy="100" r="5" fill="#e38c00"/>
  <text x="270" y="104" fill="#c9d1d9" font-family="Segoe UI, Ubuntu, sans-serif" font-size="11">TSQL 0.4%</text>

  <circle cx="33" cy="122" r="5" fill="#844FBA"/>
  <text x="43" y="126" fill="#c9d1d9" font-family="Segoe UI, Ubuntu, sans-serif" font-size="11">HCL 0.2%</text>

  <circle cx="130" cy="122" r="5" fill="#012456"/>
  <text x="140" y="126" fill="#c9d1d9" font-family="Segoe UI, Ubuntu, sans-serif" font-size="11">PowerShell 0.4%</text>

  <circle cx="260" cy="122" r="5" fill="#8b949e"/>
  <text x="270" y="126" fill="#c9d1d9" font-family="Segoe UI, Ubuntu, sans-serif" font-size="11">Other 7.2%</text>
</svg>
